PathFileType	4	(X/Y/Z)	23_coords_data.trc
DataRate	CameraRate	NumFrames	NumMarkers	Units	OrigDataRate	OrigDataStartFrame	OrigNumFrames
30.0	30.0	8	21	m	30.0	33	64
Frame#	Time	THUMB_TIP	THUMB_IP	THUMB_MCP	THUMB_CMC	INDEX_TIP	INDEX_DIP	INDEX_PIP	INDEX_MCP	MIDDLE_TIP	MIDDLE_DIP	MIDDLE_PIP	MIDDLE_MCP	RING_TIP	RING_DIP	RING_PIP	RING_MCP	PINKY_TIP	PINKY_DIP	PINKY_PIP	PINKY_MCP	WRIST
X1	Y1	Z1	X2	Y2	Z2	X3	Y3	Z3	X4	Y4	Z4	X5	Y5	Z5	X6	Y6	Z6	X7	Y7	Z7	X8	Y8	Z8	X9	Y9	Z9	X10	Y10	Z10	X11	Y11	Z11	X12	Y12	Z12	X13	Y13	Z13	X14	Y14	Z14	X15	Y15	Z15	X16	Y16	Z16	X17	Y17	Z17	X18	Y18	Z18	X19	Y19	Z19	X20	Y20	Z20	X21	Y21	Z21
31	1.0666666666666622	0.49113126593649714	-0.0181848454966701	-0.1721058626676258	0.4876909981875953	-0.023379834611925387	-0.14998852453872236	0.4788616819021928	-0.03024497709001861	-0.12094144219491698	0.47485243162710133	-0.030826420536671284	-0.0765175990951803	0.5801803287868508	0.02356634624835019	-0.1636750606779966	0.5672103245927491	0.015218471363431574	-0.15418338136868937	0.5480174862038837	0.007100160395129618	-0.1401214535278545	0.5159285582820035	-0.005141007242373208	-0.11494029760333568	0.59920728233567	0.03546995297391653	-0.14005689258608323	0.5844153468501018	0.02777124717534707	-0.13299087718715707	0.5598700827772007	0.018857396852925423	-0.12004936127822963	0.5242119163622738	0.0036914842652661095	-0.09780889850631636	0.6009288450518961	0.03432876387200223	-0.11633155734269207	0.5862552536662191	0.026818221931965924	-0.10903241522781693	0.565401634000851	0.017979907921139904	-0.09867911955454411	0.5321285175813097	0.0025611598682873105	-0.08165317563902774	0.5951559207907026	0.028688417049923087	-0.08695686840549566	0.581658755264904	0.019893557502827508	-0.08117093993064783	0.5638426839514284	0.010815036904270436	-0.07476937092807279	0.5324557891064414	-0.003271887948485208	-0.06393863544138723	0.4622830810018609	-0.023011742144276925	-0.051989820119430985
32	1.0999999999999952	0.4909031206429376	-0.017184516752944412	-0.17208661956378013	0.48744451033689185	-0.0225690298976593	-0.15001752277788272	0.47860167976904056	-0.029740790691802577	-0.1210487431235745	0.4747834450217564	-0.030633914848153476	-0.07661324590956797	0.5800406830805573	0.02324000494987788	-0.16403340817028716	0.5668243572825526	0.015338735207157117	-0.15449932883068868	0.5473772335327743	0.007799428117674978	-0.14046444160380667	0.5151176723227129	-0.004002532731893216	-0.11529162839908996	0.5991593846484675	0.03484571482508614	-0.14044698644011633	0.5840973123212109	0.027748045005500988	-0.1333225874941955	0.5592714734043818	0.01968603483577136	-0.12035758598633478	0.5235067588412399	0.0048459841120511715	-0.09806844047255614	0.6010572462264924	0.03383972242738331	-0.11671160445947454	0.5861252900350704	0.026877601688295227	-0.1093927548837682	0.5650074349699734	0.018703157123538428	-0.0990296167245388	0.5315793051860085	0.003706583200509206	-0.08193038446933154	0.5951540618818695	0.02843944522057862	-0.08796949881240812	0.5815394214386199	0.019948422000632293	-0.08200761234255927	0.5636274617593121	0.011211529124919073	-0.07540152255167998	0.5321710683193737	-0.0024827669586444667	-0.06427295492024143	0.462283081001861	-0.023011742144276925	-0.051989820119430985
33	1.1333333333333284	0.49096136000560286	-0.016114236669298565	-0.17201526361924224	0.4873985149118274	-0.021677071136265935	-0.1500070604320013	0.4784373623827306	-0.029166418113465986	-0.12115524199354988	0.4747222030627183	-0.03038832221155008	-0.07671883190450224	0.5798372250748458	0.02288630451064344	-0.1643738935185623	0.5663353146555958	0.015530049354505082	-0.15480394445347634	0.5466071581236249	0.008653858245827983	-0.140820823604145	0.514158133316599	-0.0026546413213031084	-0.11566501472004798	0.5990951525741517	0.033903661332727486	-0.14084124673521997	0.5837227726009268	0.02755706819417303	-0.1336711219460373	0.5585806225501794	0.02056266031279319	-0.12069575685619888	0.5226541185303515	0.006205615563885325	-0.09835052255464938	0.6011534886309233	0.033089800596702634	-0.11719961273516477	0.5859289247013032	0.026832327592310357	-0.10984728760958601	0.564508272117864	0.019527713488134868	-0.09945603000096714	0.5308963979568667	0.00507548085518994	-0.0822485978477222	0.5951267121111841	0.028045458516839372	-0.08924016722151384	0.5813709157644928	0.019954658162136374	-0.08305009319217505	0.5633415821499462	0.011666555811263524	-0.07618988125398851	0.5318093567186888	-0.0015149740612557805	-0.06466384635154954	0.4622830810018608	-0.023011742144276925	-0.051989820119430985
34	1.1666666666666616	0.4916727575152098	-0.01530292761505736	-0.1718246869613862	0.4878435717275035	-0.020972616067993277	-0.14988859868088655	0.4785422911727457	-0.028680546177949573	-0.12120246974264004	0.47473319189848917	-0.030155132374132698	-0.0767816822859898	0.5796990451974637	0.02241774165536936	-0.16453467353333873	0.5658727671637152	0.0156881254892417	-0.15496669036079536	0.5458129942794088	0.009619656497281026	-0.141081841462674	0.5131261795556616	-0.0011517596732781854	-0.11599828448013971	0.5990410602761389	0.032717875676689934	-0.1410379318557607	0.5833362943610365	0.02726096692429314	-0.13385583784218436	0.5578449680292329	0.021537823804882117	-0.12093889297583765	0.5217092920843769	0.007732077665791204	-0.09858353078795701	0.6012129830603132	0.032155578030337306	-0.11759923639302222	0.585686887837481	0.026733476989689642	-0.11021403582455003	0.5639475308901782	0.020448330310162244	-0.09981801400201684	0.5301055371815208	0.006665734241573351	-0.08251251367890255	0.5950832124784193	0.02753966608222358	-0.09054873934963159	0.5811761641615987	0.019931255755362698	-0.08409071338098362	0.5630014982508607	0.01220665495293316	-0.07696161242250654	0.5313727550749319	-0.0003401531953273196	-0.06499985413194176	0.4622830810018609	-0.023011742144276925	-0.051989820119430985
35	1.1999999999999948	0.49318149425151037	-0.014715872159461019	-0.17147390874039248	0.4888888055451408	-0.020423813605250918	-0.14963375699820808	0.47901871490423675	-0.02826795721535058	-0.12117552933441161	0.47483649828674623	-0.029925228373578916	-0.07679476191796775	0.5795120400259319	0.022006684989969383	-0.1645152517725178	0.5653548265696281	0.01593049737294927	-0.15499405168033303	0.544963034744165	0.010681676102351045	-0.14125962288200689	0.5119923087977374	0.00047422829113441534	-0.1163121714340763	0.5988277328916745	0.03156086712445161	-0.14107420795281628	0.5827979646912744	0.027077859796602044	-0.13393633875116429	0.5569972363024768	0.0226353586895931	-0.12113024065214462	0.5206113687107179	0.009439956792069881	-0.09881213299585256	0.6011024313172604	0.031274868517212506	-0.1178857159160312	0.5852891824224105	0.026755365671721654	-0.11050227136628832	0.5632472596908225	0.021569652676996065	-0.10013684797739397	0.529170448263919	0.008490162068479745	-0.08274665872031561	0.594912432584843	0.027141965042883576	-0.09186304856873329	0.5808414888824407	0.02008907259865156	-0.08513510300608829	0.5625366107280362	0.01296797581610698	-0.07771665064956279	0.5308322882236168	0.0010938799653515963	-0.06527779084398377	0.462283081001861	-0.023011742144276925	-0.051989820119430985
36	1.233333333333328	0.4953848581630097	-0.014254149870388089	-0.17092611336977037	0.49046943533297516	-0.019954013037248197	-0.14921551277280287	0.47984305392342297	-0.027909984557104917	-0.12106231516908561	0.47505121824551133	-0.029695114720212024	-0.07674819077136508	0.5792498802395694	0.021765926151162573	-0.16431354447525798	0.5647827847492362	0.01632390110983506	-0.15487492638132355	0.5440720782801136	0.011841102060731523	-0.14134788002096832	0.5108119981865913	0.0021448249516818896	-0.1165812618344454	0.5984121468528367	0.030562931410670124	-0.14096303541162625	0.5821002570062592	0.02705148895381937	-0.1339208751248004	0.5560404368186298	0.023857303269609886	-0.12126810864457083	0.5194137194982917	0.011217936648556526	-0.09902225710423518	0.6007700552757962	0.030572771101154972	-0.11803755432114238	0.5847097339993221	0.02697261914107496	-0.1106819451444141	0.5623999878389462	0.022889553079367908	-0.10039682109094106	0.5281067533471893	0.010472634367265199	-0.08294646201754619	0.5945638241138211	0.026953050976788573	-0.0931380460126483	0.5803548910698831	0.020468915630081908	-0.08613360381084001	0.5619511189001438	0.01393521215297	-0.07842491340341617	0.5301823805566731	0.0027350504684942045	-0.06553355609296596	0.4622830810018609	-0.023011742144276925	-0.051989820119430985
37	1.2666666666666608	0.4981662749400404	-0.01387960850125225	-0.17017792082937494	0.49250355694131875	-0.019539675720453453	-0.1486396464337536	0.4809787532723435	-0.02755179937921326	-0.12085827183010389	0.4753701234344797	-0.02945528528754704	-0.07664503837292957	0.5789532286231593	0.021703655574204173	-0.16391682036643002	0.5642047073235442	0.016837702732993787	-0.15459997420359606	0.5431880989145643	0.013058685204517806	-0.14133230558763094	0.5096444505861237	0.0038037159641405305	-0.11678021208875444	0.5978530335343353	0.029764284894731485	-0.14067834596730283	0.5813140036179822	0.027166543769979845	-0.13377094193432815	0.5550452480304153	0.025106788574884686	-0.12131624649778894	0.5181759311578947	0.013015472633518543	-0.09916672114938141	0.6002501400567868	0.030078188171976383	-0.11801733582480439	0.5839900099009585	0.02735061182887022	-0.11072566286120705	0.5614624881135948	0.024313815909636882	-0.10055371065601171	0.5269613523880141	0.012514252785515656	-0.08308480176836375	0.5940568539591364	0.02695468918058519	-0.094290108153402	0.5797400149105113	0.021021183418999057	-0.08702225915710404	0.5612614979877703	0.015053160402712873	-0.07903858001694253	0.5294481734631455	0.004503753151019474	-0.0657154482406358	0.4622830810018609	-0.023011742144276925	-0.051989820119430985
38	1.299999999999994	0.5013437575790057	-0.013636687781751089	-0.16921863275315296	0.49485039076001325	-0.019233477864133652	-0.14789934270569244	0.48233470671836687	-0.027281059221685444	-0.12056046768744672	0.47575969663329076	-0.029263362672528492	-0.07648405999115282	0.5786893760285496	0.021774902426253684	-0.16336525103120936	0.5637200575466708	0.017362087805157134	-0.15417576947304112	0.5424293634751358	0.01420204930774227	-0.1411861453196191	0.508599708985058	0.005320462543714877	-0.11688989071865191	0.5972500604854069	0.029191802589689897	-0.1402248437794288	0.5805341247281213	0.027414104289818386	-0.13348560936349302	0.5541092643919531	0.026291109895682507	-0.12124325706482297	0.5169987888948231	0.014702411006590754	-0.09922820340976957	0.5996108870113879	0.029831001160515513	-0.1178198751306575	0.5831986093439174	0.027889275035663297	-0.11061801138424288	0.5605062195328951	0.025759702410221963	-0.10058305527583966	0.5258318085218293	0.014465560296829327	-0.08312314665757448	0.593462587327378	0.027152798899273356	-0.09515626997214954	0.5790729273981008	0.021696010531291776	-0.08766219579138401	0.5605306126626117	0.016249161053748185	-0.07945692833571605	0.5286866750852595	0.006265444593044789	-0.06577582837255613	0.4622830810018609	-0.023011742144276925	-0.051989820119430985
